<?xml version="1.0" encoding="UTF-8"?>
<svg width="62px" height="62px" viewBox="0 0 62 62" version="1.1" xmlns="http://www.w3.org/2000/svg" xmlns:xlink="http://www.w3.org/1999/xlink">
    <!-- Generator: Sketch 48.2 (47327) - http://www.bohemiancoding.com/sketch -->
    <title>card-2</title>
    <desc>Created with Sketch.</desc>
    <defs></defs>
    <g id="Cursul-1" stroke="none" stroke-width="1" fill="none" fill-rule="evenodd">
        <g id="icon/card/2">
            <g>
                <path d="M42,43 L20,43 C18.895,43 18,42.105 18,41 L18,21 C18,19.895 18.895,19 20,19 L42,19 C43.105,19 44,19.895 44,21 L44,41 C44,42.105 43.105,43 42,43 Z" id="Shape" fill="#FFCB57" fill-rule="nonzero"></path>
                <g id="Group" transform="translate(17.000000, 18.000000)" fill="#3F3A34" fill-rule="nonzero">
                    <path d="M25,0 L3,0 C1.346,0 0,1.346 0,3 L0,23 C0,24.654 1.346,26 3,26 L25,26 C26.654,26 28,24.654 28,23 L28,3 C28,1.346 26.654,0 25,0 Z M26,3 L26,8 L23,8 L23,6 L19,6 L19,2 L21,2 L21,4 L23,4 L23,2 L25,2 C25.551,2 26,2.448 26,3 Z M23,14 L26,14 L26,16 L23,16 L23,14 Z M23,12 L23,10 L26,10 L26,12 L23,12 Z M13,20 L13,24 L11,24 L11,20 L13,20 Z M15,20 L17,20 L17,24 L15,24 L15,20 Z M7,18 L7,8 L21,8 L21,18 L7,18 Z M15,6 L15,2 L17,2 L17,6 L15,6 Z M13,6 L11,6 L11,2 L13,2 L13,6 Z M3,2 L5,2 L5,4 L7,4 L7,2 L9,2 L9,6 L5,6 L5,8 L2,8 L2,3 C2,2.448 2.449,2 3,2 Z M5,16 L2,16 L2,14 L5,14 L5,16 Z M5,12 L2,12 L2,10 L5,10 L5,12 Z M2,23 L2,18 L5,18 L5,20 L9,20 L9,24 L7,24 L7,22 L5,22 L5,24 L3,24 C2.449,24 2,23.552 2,23 Z M25,24 L23,24 L23,22 L21,22 L21,24 L19,24 L19,20 L23,20 L23,18 L26,18 L26,23 C26,23.552 25.551,24 25,24 Z" id="Shape"></path>
                    <path d="M9,16 L19,16 L19,10 L9,10 L9,16 Z M11,12 L17,12 L17,14 L11,14 L11,12 Z" id="Shape"></path>
                </g>
                <rect id="Rectangle-path" fill="#E56565" fill-rule="nonzero" x="32" y="46" width="2" height="12"></rect>
                <rect id="Rectangle-path" fill="#E56565" fill-rule="nonzero" x="32" y="60" width="2" height="2"></rect>
                <rect id="Rectangle-path" fill="#E56565" fill-rule="nonzero" x="28" y="46" width="2" height="12"></rect>
                <rect id="Rectangle-path" fill="#E56565" fill-rule="nonzero" x="28" y="60" width="2" height="2"></rect>
                <polygon id="Shape" fill="#E56565" fill-rule="nonzero" points="26 56 10 56 10 54 24 54 24 46 26 46"></polygon>
                <rect id="Rectangle-path" fill="#E56565" fill-rule="nonzero" x="6" y="54" width="2" height="2"></rect>
                <polygon id="Shape" fill="#E56565" fill-rule="nonzero" points="22 52 4 52 4 50 20 50 20 46 22 46"></polygon>
                <rect id="Rectangle-path" fill="#E56565" fill-rule="nonzero" x="0" y="50" width="2" height="2"></rect>
                <polygon id="Shape" fill="#E56565" fill-rule="nonzero" points="52 56 36 56 36 46 38 46 38 54 52 54"></polygon>
                <rect id="Rectangle-path" fill="#E56565" fill-rule="nonzero" x="54" y="54" width="2" height="2"></rect>
                <polygon id="Shape" fill="#E56565" fill-rule="nonzero" points="58 52 40 52 40 46 42 46 42 50 58 50"></polygon>
                <rect id="Rectangle-path" fill="#E56565" fill-rule="nonzero" x="60" y="50" width="2" height="2"></rect>
                <rect id="Rectangle-path" fill="#E56565" fill-rule="nonzero" x="28" y="4" width="2" height="12"></rect>
                <rect id="Rectangle-path" fill="#E56565" fill-rule="nonzero" x="28" y="0" width="2" height="2"></rect>
                <rect id="Rectangle-path" fill="#E56565" fill-rule="nonzero" x="32" y="4" width="2" height="12"></rect>
                <rect id="Rectangle-path" fill="#E56565" fill-rule="nonzero" x="32" y="0" width="2" height="2"></rect>
                <polygon id="Shape" fill="#E56565" fill-rule="nonzero" points="38 16 36 16 36 6 52 6 52 8 38 8"></polygon>
                <rect id="Rectangle-path" fill="#E56565" fill-rule="nonzero" x="54" y="6" width="2" height="2"></rect>
                <polygon id="Shape" fill="#E56565" fill-rule="nonzero" points="42 16 40 16 40 10 58 10 58 12 42 12"></polygon>
                <rect id="Rectangle-path" fill="#E56565" fill-rule="nonzero" x="60" y="10" width="2" height="2"></rect>
                <polygon id="Shape" fill="#E56565" fill-rule="nonzero" points="26 16 24 16 24 8 10 8 10 6 26 6"></polygon>
                <rect id="Rectangle-path" fill="#E56565" fill-rule="nonzero" x="6" y="6" width="2" height="2"></rect>
                <polygon id="Shape" fill="#E56565" fill-rule="nonzero" points="22 16 20 16 20 12 4 12 4 10 22 10"></polygon>
                <rect id="Rectangle-path" fill="#E56565" fill-rule="nonzero" x="0" y="10" width="2" height="2"></rect>
            </g>
        </g>
    </g>
</svg>