<?xml version="1.0" encoding="UTF-8"?>
<svg width="56px" height="62px" viewBox="0 0 56 62" version="1.1" xmlns="http://www.w3.org/2000/svg" xmlns:xlink="http://www.w3.org/1999/xlink">
    <!-- Generator: Sketch 48.2 (47327) - http://www.bohemiancoding.com/sketch -->
    <title>card-1</title>
    <desc>Created with Sketch.</desc>
    <defs></defs>
    <g id="Cursul-1" stroke="none" stroke-width="1" fill="none" fill-rule="evenodd">
        <g id="icon/card/1">
            <g>
                <rect id="Rectangle-path" fill="#E56565" fill-rule="nonzero" x="28" y="37" width="2" height="10"></rect>
                <rect id="Rectangle-path" fill="#E56565" fill-rule="nonzero" x="50" y="20" width="2" height="2"></rect>
                <rect id="Rectangle-path" fill="#E56565" fill-rule="nonzero" transform="translate(48.723274, 12.501722) rotate(-29.992901) translate(-48.723274, -12.501722) " x="47.7232596" y="11.5017076" width="2.00002922" height="2.00002922"></rect>
                <rect id="Rectangle-path" fill="#E56565" fill-rule="nonzero" transform="translate(42.499060, 6.275722) rotate(-60.007099) translate(-42.499060, -6.275722) " x="41.4990451" y="5.27570769" width="2.00002922" height="2.00002922"></rect>
                <rect id="Rectangle-path" fill="#E56565" fill-rule="nonzero" x="33" y="3" width="2" height="2"></rect>
                <rect id="Rectangle-path" fill="#E56565" fill-rule="nonzero" transform="translate(42.500278, 35.723974) rotate(-29.992901) translate(-42.500278, -35.723974) " x="41.5002632" y="34.7239596" width="2.00002922" height="2.00002922"></rect>
                <rect id="Rectangle-path" fill="#E56565" fill-rule="nonzero" transform="translate(48.722178, 29.498526) rotate(-60.007099) translate(-48.722178, -29.498526) " x="47.7221632" y="28.4985112" width="2.00002922" height="2.00002922"></rect>
                <rect id="Rectangle-path" fill="#E56565" fill-rule="nonzero" x="32" y="37" width="2" height="7"></rect>
                <rect id="Rectangle-path" fill="#E56565" fill-rule="nonzero" x="36" y="37" width="2" height="5"></rect>
                <circle id="Oval" fill="#FFCB57" fill-rule="nonzero" cx="34" cy="21" r="13"></circle>
                <g id="Group" fill="#3F3A34" fill-rule="nonzero">
                    <path d="M50.03,49.242 L50.719,52 L47.899,52 C47.62,50.63 46.771,49.475 45.621,48.761 L52,46.731 L52,33.296 C54.682,29.586 56.148,25.028 55.988,20.272 C55.61,9.095 45.964,0 34.486,0 L27.78,0 C24.306,0 21.095,0.699 18.238,2.079 C10.69,5.724 6,13.16 6,21.485 C6,24.048 4.852,26.438 2.85,28.039 L0.672,29.781 L1.158,30.54 C4.506,35.762 6.989,41.454 8.538,47.46 L8.85,48.671 C9.388,50.754 10.725,52.444 12.52,53.31 C13.469,53.768 14.497,53.996 15.522,53.996 C16.646,53.996 17.767,53.723 18.776,53.176 L33.773,45.052 C36.366,43.649 39.077,42.343 41.7,41.08 C42.53,40.681 43.36,40.281 44.188,39.878 C46.393,38.804 48.343,37.366 50,35.67 L50,45.27 L30,51.634 L30,50 L28,50 L28,62 L55.281,62 L51.97,48.758 L50.03,49.242 Z M43.312,38.078 C42.487,38.48 41.66,38.879 40.833,39.277 C38.189,40.549 35.456,41.865 32.822,43.293 L17.825,51.416 C16.46,52.156 14.802,52.188 13.39,51.509 C12.126,50.9 11.178,49.683 10.788,48.171 L10.476,46.96 C10.393,46.638 10.297,46.32 10.209,46 L13,46 L13,44 L9.62,44 C8.106,39.162 6.001,34.54 3.322,30.223 L4.098,29.602 C6.578,27.618 8,24.66 8,21.485 C8,13.933 12.256,7.188 19.108,3.88 C21.692,2.633 24.61,2 27.781,2 L28,2 L28,8.37 C23.278,10.623 20,15.429 20,21 C20,28.72 26.28,35 34,35 C41.72,35 48,28.72 48,21 C48,13.28 41.72,7 34,7 C32.61,7 31.269,7.21 30,7.59 L30,2 L34.486,2 C44.898,2 53.647,10.228 53.988,20.341 C54.242,27.832 50.051,34.795 43.312,38.078 Z M24.845,13.259 L26.975,15.389 C25.742,16.929 25,18.878 25,21 C25,23.122 25.742,25.071 26.975,26.611 L24.845,28.741 C23.074,26.649 22,23.949 22,21 C22,18.051 23.074,15.351 24.845,13.259 Z M41,21 C41,24.859 37.86,28 34,28 C30.14,28 27,24.859 27,21 C27,17.141 30.14,14 34,14 C37.86,14 41,17.141 41,21 Z M28.389,28.025 C29.93,29.258 31.878,30 34,30 C36.122,30 38.07,29.258 39.611,28.025 L41.741,30.155 C39.649,31.926 36.949,33 34,33 C31.051,33 28.351,31.926 26.259,30.155 L28.389,28.025 Z M43.155,28.741 L41.025,26.611 C42.258,25.071 43,23.122 43,21 C43,18.878 42.258,16.929 41.025,15.389 L43.155,13.259 C44.926,15.351 46,18.051 46,21 C46,23.949 44.926,26.649 43.155,28.741 Z M39.611,13.975 C38.07,12.742 36.122,12 34,12 C31.878,12 29.93,12.742 28.389,13.975 L26.259,11.845 C28.351,10.074 31.051,9 34,9 C36.949,9 39.649,10.074 41.741,11.845 L39.611,13.975 Z M52.347,58.51 L47.602,54.952 C47.731,54.649 47.831,54.33 47.899,54 L51.219,54 L52.347,58.51 Z M43.363,57.963 L44.382,60 L35.722,60 L42.435,57.957 L42.431,57.942 C42.619,57.964 42.805,58 43,58 C43.124,58 43.241,57.972 43.363,57.963 Z M45.319,57.403 C45.735,57.183 46.123,56.919 46.459,56.595 L51,60 L46.618,60 L45.319,57.403 Z M43,56 C41.346,56 40,54.654 40,53 C40,51.346 41.346,50 43,50 C44.654,50 46,51.346 46,53 C46,54.654 44.654,56 43,56 Z M38.392,51.061 C38.14,51.658 38,52.313 38,53 C38,54.475 38.655,55.79 39.674,56.706 L30,59.65 L30,53.731 L38.392,51.061 Z" id="Shape"></path>
                    <path d="M34,16 C31.243,16 29,18.243 29,21 C29,23.757 31.243,26 34,26 C36.757,26 39,23.757 39,21 C39,18.243 36.757,16 34,16 Z M34,24 C32.346,24 31,22.654 31,21 C31,19.346 32.346,18 34,18 C35.654,18 37,19.346 37,21 C37,22.654 35.654,24 34,24 Z" id="Shape"></path>
                    <rect id="Rectangle-path" x="10" y="25" width="7" height="2"></rect>
                    <rect id="Rectangle-path" x="42" y="52" width="2" height="2"></rect>
                </g>
            </g>
        </g>
    </g>
</svg>