<?xml version="1.0" encoding="UTF-8"?>
<svg width="62px" height="62px" viewBox="0 0 62 62" version="1.1" xmlns="http://www.w3.org/2000/svg" xmlns:xlink="http://www.w3.org/1999/xlink">
    <!-- Generator: Sketch 48.2 (47327) - http://www.bohemiancoding.com/sketch -->
    <title>card-3</title>
    <desc>Created with Sketch.</desc>
    <defs></defs>
    <g id="Cursul-1" stroke="none" stroke-width="1" fill="none" fill-rule="evenodd">
        <g id="icon/card/3" transform="translate(0.000000, -1.000000)">
            <g>
                <path d="M27,34 L17,34 C15.895,34 15,33.105 15,32 L15,30 C15,28.895 15.895,28 17,28 L27,28 C28.105,28 29,28.895 29,30 L29,32 C29,33.105 28.105,34 27,34 Z" id="Shape" fill="#FFCB57" fill-rule="nonzero"></path>
                <ellipse id="Oval" fill="#FFCB57" fill-rule="nonzero" cx="9" cy="18" rx="8" ry="7"></ellipse>
                <path d="M62,12 L60,12 C60,7.038 55.962,3 51,3 C46.038,3 42,7.038 42,12 L40,12 C40,5.935 44.935,1 51,1 C57.065,1 62,5.935 62,12 Z" id="Shape" fill="#E56565" fill-rule="nonzero"></path>
                <path d="M58,12 L56,12 C56,9.243 53.757,7 51,7 C48.243,7 46,9.243 46,12 L44,12 C44,8.14 47.14,5 51,5 C54.86,5 58,8.14 58,12 Z" id="Shape" fill="#E56565" fill-rule="nonzero"></path>
                <g id="Group" fill="#3F3A34" fill-rule="nonzero">
                    <path d="M24,42 C22.346,42 21,43.346 21,45 C21,46.654 22.346,48 24,48 C25.654,48 27,46.654 27,45 C27,43.346 25.654,42 24,42 Z M24,46 C23.449,46 23,45.551 23,45 C23,44.449 23.449,44 24,44 C24.551,44 25,44.449 25,45 C25,45.551 24.551,46 24,46 Z" id="Shape"></path>
                    <path d="M48,42 C46.346,42 45,43.346 45,45 C45,46.654 46.346,48 48,48 C49.654,48 51,46.654 51,45 C51,43.346 49.654,42 48,42 Z M48,46 C47.449,46 47,45.551 47,45 C47,44.449 47.449,44 48,44 C48.551,44 49,44.449 49,45 C49,45.551 48.551,46 48,46 Z" id="Shape"></path>
                    <path d="M14,30 L14,32 C14,33.654 15.346,35 17,35 L27,35 C28.654,35 30,33.654 30,32 L30,30 C30,28.346 28.654,27 27,27 L17,27 C15.346,27 14,28.346 14,30 Z M28,30 L28,32 C28,32.551 27.551,33 27,33 L17,33 C16.449,33 16,32.551 16,32 L16,30 C16,29.449 16.449,29 17,29 L27,29 C27.551,29 28,29.449 28,30 Z" id="Shape"></path>
                    <path d="M62,38 C62,28.643 59.257,19.582 54.066,11.796 L53.964,11.643 C53.785,10.159 52.532,9 51,9 C49.346,9 48,10.346 48,12 C48,13.397 48.964,14.563 50.258,14.896 L52.031,19.861 C53.661,24.425 54.615,29.163 54.9,33.98 C52.702,31.543 49.532,30 46,30 L32,30 L32,32 L46,32 C51.514,32 56,36.486 56,42 C56,44.189 55.285,46.277 54,47.99 L54,45 C54,41.691 51.309,39 48,39 C44.691,39 42,41.691 42,45 L42,52 L30,52 L30,45 C30,41.691 27.309,39 24,39 C20.691,39 18,41.691 18,45 L18,47.99 C16.715,46.277 16,44.19 16,42 C16,40.399 16.367,38.87 17.09,37.455 L15.309,36.545 C14.671,37.792 14.269,39.114 14.098,40.488 L7,47.586 L6.536,47.122 C5.812,46.398 4.851,46 3.829,46 C1.717,46 0,47.717 0,49.829 C0,50.851 0.398,51.813 1.122,52.536 L5.233,56.647 C6.105,57.52 7.266,58 8.5,58 C9.734,58 10.895,57.52 11.768,56.646 L16.707,51.707 L15.293,50.293 L10.354,55.232 C9.364,56.222 7.637,56.222 6.647,55.232 L2.536,51.121 C2.19,50.776 2,50.317 2,49.829 C2,48.82 2.82,48 3.829,48 C4.317,48 4.776,48.19 5.122,48.536 L7,50.414 L14.074,43.34 C14.399,46.259 15.794,48.943 18,50.921 L18,55 C15.794,55 14,56.794 14,59 C14,61.206 15.794,63 18,63 L27,63 C28.654,63 30,61.654 30,60 L30,54 L42,54 L42,55 C39.794,55 38,56.794 38,59 C38,61.206 39.794,63 42,63 L51,63 C52.654,63 54,61.654 54,60 L54,50.922 C56.315,48.846 57.719,45.99 57.95,42.904 C60.253,42.458 62,40.432 62,38 Z M28,60 C28,60.551 27.551,61 27,61 L18,61 C16.897,61 16,60.103 16,59 C16,57.897 16.897,57 18,57 L20,57 L20,45 C20,42.794 21.794,41 24,41 C26.206,41 28,42.794 28,45 L28,60 Z M52,60 C52,60.551 51.551,61 51,61 L42,61 C40.897,61 40,60.103 40,59 C40,57.897 40.897,57 42,57 L44,57 L44,45 C44,42.794 45.794,41 48,41 C50.206,41 52,42.794 52,45 L52,60 Z M51,11 C51.551,11 52,11.449 52,12 C52,12.551 51.551,13 51,13 C50.449,13 50,12.551 50,12 C50,11.449 50.449,11 51,11 Z M57.941,40.834 C57.809,39.476 57.442,38.188 56.895,37 L57,37 C57,30.913 55.962,24.92 53.915,19.188 L52.308,14.687 C52.625,14.532 52.912,14.33 53.155,14.079 C57.635,21.266 60,29.505 60,38 C60,39.324 59.133,40.437 57.941,40.834 Z" id="Shape"></path>
                    <path d="M7.442,25.872 C8.521,27.453 9.922,28.828 11.539,29.849 L12.606,28.158 C11.647,27.553 10.785,26.795 10.03,25.945 C14.509,25.487 18,22.101 18,18 C18,13.897 14.506,10.51 10.025,10.056 C12.286,7.496 15.518,6 19,6 C19.677,6 20.347,6.076 21.009,6.188 C21.006,6.855 21.085,7.56 21.27,8.303 C21.832,10.549 23.219,12.864 25.178,14.823 C26.928,16.573 28.962,17.862 30.978,18.519 C30.864,21.133 29.907,23.655 28.232,25.669 L29.77,26.948 C31.651,24.686 32.76,21.876 32.959,18.949 C33.239,18.979 33.517,19.004 33.784,19.004 C35.312,19.004 36.617,18.516 37.566,17.567 C38.923,16.21 39.337,14.126 38.73,11.698 C38.168,9.452 36.781,7.137 34.822,5.178 C32.863,3.219 30.548,1.832 28.302,1.27 C25.874,0.663 23.79,1.076 22.433,2.434 C21.932,2.935 21.562,3.536 21.322,4.216 C21.091,4.177 20.863,4.122 20.63,4.095 C20.388,3.458 20.032,2.902 19.565,2.435 C16.862,-0.271 11.42,0.935 7.178,5.178 C5.154,7.202 3.755,9.589 3.231,11.868 C1.258,13.337 0,15.54 0,18 C0,21.938 3.221,25.213 7.442,25.872 Z M23.848,3.848 C24.428,3.268 25.257,2.994 26.225,2.994 C28.341,2.994 31.12,4.304 33.408,6.592 C36.742,9.926 37.999,14.304 36.152,16.152 C34.302,17.998 29.926,16.742 26.592,13.408 C23.257,10.074 22.001,5.696 23.848,3.848 Z M7,15 C6.449,15 6,14.551 6,14 C6,13.449 6.449,13 7,13 C7.551,13 8,13.449 8,14 C8,14.551 7.551,15 7,15 Z M8.592,6.592 C10.298,4.886 12.283,3.685 14.183,3.21 C15.9,2.78 17.311,3.007 18.152,3.848 C18.209,3.905 18.245,3.982 18.297,4.044 C13.914,4.262 9.928,6.487 7.445,10.128 C6.878,10.216 6.33,10.352 5.805,10.531 C6.429,9.168 7.387,7.797 8.592,6.592 Z M4.021,13.789 C4.016,13.86 4,13.928 4,14 C4,15.302 4.839,16.402 6,16.816 L6,18.586 L4.293,20.293 L5.707,21.707 L7,20.414 L8.293,21.707 L9.707,20.293 L8,18.586 L8,16.816 C9.161,16.402 10,15.302 10,14 C10,13.234 9.703,12.541 9.228,12.01 C12.982,12.114 16,14.757 16,18 C16,21.309 12.86,24 9,24 C5.14,24 2,21.309 2,18 C2,16.36 2.773,14.873 4.021,13.789 Z" id="Shape"></path>
                    <path d="M18,8 C16.622,8 15.5,9.122 15.5,10.5 C15.5,11.878 16.622,13 18,13 C19.378,13 20.5,11.878 20.5,10.5 C20.5,9.122 19.378,8 18,8 Z M18,11 C17.724,11 17.5,10.776 17.5,10.5 C17.5,10.224 17.724,10 18,10 C18.276,10 18.5,10.224 18.5,10.5 C18.5,10.776 18.276,11 18,11 Z" id="Shape"></path>
                </g>
            </g>
        </g>
    </g>
</svg>