<?xml version="1.0" encoding="UTF-8"?>
<svg width="62px" height="62px" viewBox="0 0 62 62" version="1.1" xmlns="http://www.w3.org/2000/svg" xmlns:xlink="http://www.w3.org/1999/xlink">
    <!-- Generator: Sketch 48.2 (47327) - http://www.bohemiancoding.com/sketch -->
    <title>card-4</title>
    <desc>Created with Sketch.</desc>
    <defs></defs>
    <g id="Cursul-1" stroke="none" stroke-width="1" fill="none" fill-rule="evenodd">
        <g id="icon/card/4">
            <g>
                <path d="M55,62 L32,62 L32,54 L34,54 L34,60 L55,60 C56.654,60 58,58.654 58,57 L58,36 L60,36 L60,57 C60,59.757 57.757,62 55,62 Z" id="Shape" fill="#E56565" fill-rule="nonzero"></path>
                <path d="M59,34 C57.346,34 56,32.654 56,31 C56,29.346 57.346,28 59,28 C60.654,28 62,29.346 62,31 C62,32.654 60.654,34 59,34 Z M59,30 C58.448,30 58,30.449 58,31 C58,31.551 58.448,32 59,32 C59.552,32 60,31.551 60,31 C60,30.449 59.552,30 59,30 Z" id="Shape" fill="#E56565" fill-rule="nonzero"></path>
                <path d="M51,58 L36,58 L36,54 L38,54 L38,56 L51,56 C51.552,56 52,55.551 52,55 L52,44 L54,44 L54,55 C54,56.654 52.654,58 51,58 Z" id="Shape" fill="#E56565" fill-rule="nonzero"></path>
                <path d="M54,20 C54,16.819 51.877,14.138 48.971,13.286 C48.977,13.19 49,13.098 49,13 C49,10.581 47.282,8.563 45,8.1 L44.993,8.14 C44.994,8.093 45,8.047 45,8 C45,4.134 41.866,1 38,1 C34.134,1 31,4.134 31,8 C31,4.134 27.866,1 24,1 C20.134,1 17,4.134 17,8 L17.232,8.077 C14.838,8.449 13,10.502 13,13 C13,13.114 13.026,13.221 13.034,13.333 L13,13.29 C10.109,14.15 8,16.829 8,20 C8,22.5 9.315,24.689 11.287,25.927 L11.29,26 C11.101,26.634 11,27.305 11,28 C11,31.527 13.608,34.444 17.001,34.929 L17.091,34.93 C17.036,35.28 17,35.635 17,36 C17,39.866 20.134,43 24,43 C27.866,43 31,39.866 31,36 C31,39.866 34.134,43 38,43 C41.866,43 45,39.866 45,36 C45,35.635 44.964,35.28 44.91,34.93 L45,34.929 C48.392,34.444 51,31.527 51,28 C51,27.305 50.899,26.634 50.71,26.001 L50.702,25.933 C52.68,24.696 54,22.505 54,20 Z" id="Shape" fill="#FFCB57" fill-rule="nonzero"></path>
                <path d="M53,42 C51.346,42 50,40.654 50,39 C50,37.346 51.346,36 53,36 C54.654,36 56,37.346 56,39 C56,40.654 54.654,42 53,42 Z M53,38 C52.448,38 52,38.449 52,39 C52,39.551 52.448,40 53,40 C53.552,40 54,39.551 54,39 C54,38.449 53.552,38 53,38 Z" id="Shape" fill="#E56565" fill-rule="nonzero"></path>
                <path d="M30,62 L7,62 C4.243,62 2,59.757 2,57 L2,36 L4,36 L4,57 C4,58.654 5.346,60 7,60 L28,60 L28,54 L30,54 L30,62 Z" id="Shape" fill="#E56565" fill-rule="nonzero"></path>
                <path d="M3,34 C1.346,34 0,32.654 0,31 C0,29.346 1.346,28 3,28 C4.654,28 6,29.346 6,31 C6,32.654 4.654,34 3,34 Z M3,30 C2.448,30 2,30.449 2,31 C2,31.551 2.448,32 3,32 C3.552,32 4,31.551 4,31 C4,30.449 3.552,30 3,30 Z" id="Shape" fill="#E56565" fill-rule="nonzero"></path>
                <path d="M26,58 L11,58 C9.346,58 8,56.654 8,55 L8,44 L10,44 L10,55 C10,55.551 10.448,56 11,56 L24,56 L24,54 L26,54 L26,58 Z" id="Shape" fill="#E56565" fill-rule="nonzero"></path>
                <path d="M9,42 C7.346,42 6,40.654 6,39 C6,37.346 7.346,36 9,36 C10.654,36 12,37.346 12,39 C12,40.654 10.654,42 9,42 Z M9,38 C8.448,38 8,38.449 8,39 C8,39.551 8.448,40 9,40 C9.552,40 10,39.551 10,39 C10,38.449 9.552,38 9,38 Z" id="Shape" fill="#E56565" fill-rule="nonzero"></path>
                <g id="Group" transform="translate(7.000000, 0.000000)" fill="#3F3A34" fill-rule="nonzero">
                    <rect id="Rectangle-path" x="17" y="50" width="14" height="2"></rect>
                    <path d="M48,20 C48,16.735 45.973,13.787 42.985,12.582 C42.817,10.185 41.212,8.127 38.966,7.345 C38.631,3.24 35.19,0 31,0 C27.992,0 25.366,1.669 24,4.13 C22.634,1.669 20.008,0 17,0 C12.812,0 9.372,3.236 9.034,7.338 C6.81,8.113 5.182,10.158 5.021,12.603 C2.038,13.81 0,16.738 0,20 C0,22.603 1.255,24.913 3.186,26.374 C3.076,26.909 3,27.45 3,28 C3,31.664 5.532,34.851 9.013,35.745 C9.01,35.831 9,35.914 9,36 C9,39.719 11.555,42.845 15,43.737 L15,48 L33,48 L33,43.737 C36.445,42.845 39,39.72 39,36 C39,35.914 38.99,35.831 38.987,35.745 C42.468,34.851 45,31.664 45,28 C45,27.45 44.924,26.909 44.813,26.375 C46.745,24.913 48,22.603 48,20 Z M31,46 L17,46 L17,44 C20.008,44 22.634,42.331 24,39.87 C25.366,42.331 27.992,44 31,44 L31,46 Z M43,28 C43,30.683 41.185,33.011 38.671,33.745 C37.694,30.429 34.628,28 31,28 L31,30 C34.309,30 37,32.691 37,36 C37,39.309 34.309,42 31,42 C27.691,42 25,39.309 25,36 L23,36 C23,39.309 20.309,42 17,42 C13.691,42 11,39.309 11,36 C11,32.691 13.691,30 17,30 L17,28 C13.372,28 10.306,30.429 9.329,33.745 C6.815,33.011 5,30.683 5,28 C5,27.807 5.023,27.617 5.041,27.426 C5.958,27.793 6.954,28 8,28 C10.831,28 13.395,26.551 14.856,24.123 L13.143,23.091 C12.046,24.913 10.123,26 8,26 C4.691,26 2,23.309 2,20 C2,17.747 3.294,15.699 5.244,14.682 C5.974,17.173 8.276,19 11,19 L11,17 C8.794,17 7,15.206 7,13 C7,10.794 8.794,9 11,9 C13.206,9 15,10.794 15,13 L17,13 C17,9.722 14.357,7.054 11.09,7.005 C11.566,4.169 14.031,2 17,2 C20.309,2 23,4.691 23,8 L25,8 C25,4.691 27.691,2 31,2 C34.309,2 37,4.691 37,8 C37,11.309 34.309,14 31,14 L31,16 C34.907,16 38.164,13.182 38.858,9.473 C40.14,10.153 40.999,11.497 40.995,13.023 C40.985,13.09 40.976,13.157 40.973,13.226 L40.924,14.022 L41.69,14.246 C44.228,14.99 46,17.356 46,20 C46,23.309 43.309,26 40,26 C38.374,26 36.852,25.36 35.714,24.198 L34.284,25.597 C35.802,27.146 37.832,28 40,28 C41.046,28 42.042,27.793 42.959,27.426 C42.977,27.617 43,27.807 43,28 Z" id="Shape"></path>
                    <rect id="Rectangle-path" x="39" y="17" width="2" height="2"></rect>
                    <rect id="Rectangle-path" x="19" y="26" width="2" height="2"></rect>
                    <rect id="Rectangle-path" x="27" y="34" width="2" height="2"></rect>
                    <rect id="Rectangle-path" x="15" y="38" width="2" height="2"></rect>
                    <rect id="Rectangle-path" x="29" y="7" width="2" height="2"></rect>
                    <rect id="Rectangle-path" x="15" y="4" width="2" height="2"></rect>
                    <rect id="Rectangle-path" x="17" y="15" width="2" height="2"></rect>
                    <rect id="Rectangle-path" x="6" y="21" width="2" height="2"></rect>
                    <rect id="Rectangle-path" x="25" y="21" width="2" height="2"></rect>
                </g>
            </g>
        </g>
    </g>
</svg>