<?xml version="1.0" encoding="UTF-8"?>
<svg width="58px" height="62px" viewBox="0 0 58 62" version="1.1" xmlns="http://www.w3.org/2000/svg" xmlns:xlink="http://www.w3.org/1999/xlink">
    <!-- Generator: Sketch 48.2 (47327) - http://www.bohemiancoding.com/sketch -->
    <title>card-5</title>
    <desc>Created with Sketch.</desc>
    <defs></defs>
    <g id="Cursul-1" stroke="none" stroke-width="1" fill="none" fill-rule="evenodd">
        <g id="icon/card/5">
            <g>
                <path d="M45,20 L45,14 L41.456,13.291 C41.198,12.423 40.858,11.591 40.434,10.809 L42.435,7.807 L38.192,3.564 L35.19,5.565 C34.409,5.141 33.576,4.801 32.708,4.543 L32,1 L26,1 L25.291,4.544 C24.423,4.802 23.591,5.142 22.809,5.566 L19.807,3.565 L15.564,7.808 L17.565,10.81 C17.141,11.591 16.801,12.424 16.543,13.292 L13,14 L13,20 L16.544,20.709 C16.802,21.577 17.142,22.409 17.566,23.191 L15.565,26.193 L14.197,28.131 C17.68,29.27 23.013,30 29,30 C34.987,30 40.32,29.27 43.803,28.131 L42.435,26.193 L40.434,23.191 C40.858,22.41 41.198,21.577 41.456,20.709 L45,20 Z M29,25 C24.582,25 21,21.418 21,17 C21,12.582 24.582,9 29,9 C33.418,9 37,12.582 37,17 C37,21.418 33.418,25 29,25 Z" id="Shape" fill="#FFCB57" fill-rule="nonzero"></path>
                <path d="M20,47 C16.14,47 13,43.86 13,40 C13,36.14 16.14,33 20,33 C23.86,33 27,36.14 27,40 C27,43.86 23.86,47 20,47 Z M20,35 C17.243,35 15,37.243 15,40 C15,42.757 17.243,45 20,45 C22.757,45 25,42.757 25,40 C25,37.243 22.757,35 20,35 Z" id="Shape" fill="#E56565" fill-rule="nonzero"></path>
                <path d="M38,47 C34.14,47 31,43.86 31,40 C31,36.14 34.14,33 38,33 C41.86,33 45,36.14 45,40 C45,43.86 41.86,47 38,47 Z M38,35 C35.243,35 33,37.243 33,40 C33,42.757 35.243,45 38,45 C40.757,45 43,42.757 43,40 C43,37.243 40.757,35 38,35 Z" id="Shape" fill="#E56565" fill-rule="nonzero"></path>
                <g id="Group" fill="#3F3A34" fill-rule="nonzero">
                    <rect id="Rectangle-path" x="28" y="4" width="2" height="2"></rect>
                    <rect id="Rectangle-path" transform="translate(20.514913, 8.514700) rotate(-45.000000) translate(-20.514913, -8.514700) " x="19.5149226" y="7.51470959" width="1.99998082" height="1.99998082"></rect>
                    <rect id="Rectangle-path" x="16" y="16" width="2" height="2"></rect>
                    <rect id="Rectangle-path" transform="translate(20.514300, 25.484787) rotate(-45.000000) translate(-20.514300, -25.484787) " x="19.5143096" y="24.4847966" width="1.99998082" height="1.99998082"></rect>
                    <rect id="Rectangle-path" transform="translate(37.484387, 25.485400) rotate(-45.000000) translate(-37.484387, -25.485400) " x="36.4843966" y="24.4854096" width="1.99998082" height="1.99998082"></rect>
                    <rect id="Rectangle-path" x="40" y="16" width="2" height="2"></rect>
                    <rect id="Rectangle-path" transform="translate(37.485000, 8.515313) rotate(-45.000000) translate(-37.485000, -8.515313) " x="36.4850096" y="7.51532259" width="1.99998082" height="1.99998082"></rect>
                    <path d="M29,26 C33.962,26 38,21.962 38,17 C38,12.038 33.962,8 29,8 C24.038,8 20,12.038 20,17 C20,21.962 24.038,26 29,26 Z M29,10 C32.86,10 36,13.14 36,17 C36,20.86 32.86,24 29,24 C25.14,24 22,20.86 22,17 C22,13.14 25.14,10 29,10 Z" id="Shape"></path>
                    <path d="M16.409,23.124 L14.733,25.638 L16.397,26.747 L18.733,23.243 L18.445,22.713 C18.061,22.006 17.744,21.236 17.502,20.423 L17.33,19.846 L14,19.18 L14,14.82 L17.331,14.153 L17.503,13.576 C17.745,12.763 18.062,11.993 18.446,11.286 L18.734,10.756 L16.853,7.934 L19.936,4.851 L22.758,6.732 L23.288,6.444 C23.995,6.06 24.765,5.743 25.578,5.501 L26.155,5.329 L26.82,2 L31.18,2 L31.847,5.331 L32.424,5.503 C33.237,5.745 34.007,6.062 34.714,6.446 L35.244,6.734 L38.066,4.853 L41.729,8.516 L43.143,7.102 L38.32,2.278 L35.124,4.408 C34.628,4.168 34.11,3.954 33.574,3.771 L32.82,0 L25.18,0 L24.426,3.771 C23.89,3.955 23.372,4.168 22.876,4.408 L19.68,2.278 L14.278,7.68 L16.408,10.876 C16.168,11.372 15.954,11.89 15.771,12.426 L12,13.18 L12,20.82 L15.771,21.574 C15.955,22.11 16.168,22.628 16.409,23.124 Z" id="Shape"></path>
                    <path d="M46,20.82 L46,13.18 L42.229,12.426 C41.977,11.692 41.67,10.989 41.313,10.333 L39.555,11.287 C39.939,11.994 40.256,12.764 40.498,13.577 L40.67,14.154 L44,14.82 L44,19.18 L40.669,19.847 L40.497,20.424 C40.255,21.237 39.938,22.007 39.554,22.714 L39.266,23.244 L41.602,26.748 L43.266,25.639 L41.59,23.125 C41.83,22.629 42.044,22.111 42.227,21.575 L46,20.82 Z" id="Shape"></path>
                    <path d="M29,31 C38.939,31 49,28.939 49,25 C49,23.826 48.148,22.781 46.467,21.893 L45.532,23.662 C46.616,24.233 47,24.74 47,25 C47,26.357 40.646,29 29,29 C17.354,29 11,26.357 11,25 C11,24.74 11.384,24.233 12.467,23.661 L11.532,21.892 C9.852,22.781 9,23.826 9,25 C9,28.939 19.061,31 29,31 Z" id="Shape"></path>
                    <path d="M17,40 C17,41.654 18.346,43 20,43 C21.654,43 23,41.654 23,40 C23,38.346 21.654,37 20,37 C18.346,37 17,38.346 17,40 Z M21,40 C21,40.551 20.551,41 20,41 C19.449,41 19,40.551 19,40 C19,39.449 19.449,39 20,39 C20.551,39 21,39.449 21,40 Z" id="Shape"></path>
                    <path d="M35,40 C35,41.654 36.346,43 38,43 C39.654,43 41,41.654 41,40 C41,38.346 39.654,37 38,37 C36.346,37 35,38.346 35,40 Z M39,40 C39,40.551 38.551,41 38,41 C37.449,41 37,40.551 37,40 C37,39.449 37.449,39 38,39 C38.551,39 39,39.449 39,40 Z" id="Shape"></path>
                    <path d="M58,17 C58,15.346 56.654,14 55,14 C53.346,14 52,15.346 52,17 C52,18.302 52.839,19.402 54,19.816 L54,32.727 C52.741,31.297 50.984,30.319 49,30.07 L49,29 L47,29 L47,43.201 C47,46.673 45.648,49.938 43.192,52.393 L37.05,58.535 C36.106,59.48 34.85,60 33.515,60 L24.486,60 C23.151,60 21.895,59.48 20.95,58.536 L14.808,52.394 C12.352,49.938 11,46.673 11,43.201 L11,29 L9,29 L9,30.069 C7.016,30.318 5.259,31.295 4,32.726 L4,19.816 C5.161,19.402 6,18.302 6,17 C6,15.346 4.654,14 3,14 C1.346,14 0,15.346 0,17 C0,18.302 0.839,19.402 2,19.816 L2,38 C2,42.161 5.195,45.588 9.26,45.963 C9.807,48.917 11.223,51.638 13.393,53.808 L19.535,59.95 C20.857,61.272 22.615,62 24.485,62 L33.514,62 C35.384,62 37.141,61.272 38.464,59.95 L44.606,53.808 C46.777,51.638 48.192,48.917 48.739,45.963 C52.805,45.588 56,42.161 56,38 L56,19.816 C57.161,19.402 58,18.302 58,17 Z M3,16 C3.551,16 4,16.449 4,17 C4,17.551 3.551,18 3,18 C2.449,18 2,17.551 2,17 C2,16.449 2.449,16 3,16 Z M4,38 C4,35.033 6.167,32.569 9,32.09 L9,37 L6,37 L6,39 L9,39 L9,43.201 C9,43.441 9.024,43.677 9.035,43.915 C6.185,43.451 4,40.979 4,38 Z M48.965,43.915 C48.976,43.677 49,43.441 49,43.201 L49,39 L52,39 L52,37 L49,37 L49,32.09 C51.833,32.568 54,35.032 54,38 C54,40.979 51.815,43.451 48.965,43.915 Z M55,18 C54.449,18 54,17.551 54,17 C54,16.449 54.449,16 55,16 C55.551,16 56,16.449 56,17 C56,17.551 55.551,18 55,18 Z" id="Shape"></path>
                </g>
            </g>
        </g>
    </g>
</svg>